<?xml version="1.0" encoding="utf-8"?>
<!-- Generator: Adobe Illustrator 21.0.2, SVG Export Plug-In . SVG Version: 6.00 Build 0)  -->
<svg version="1.1" id="Layer_1" xmlns="http://www.w3.org/2000/svg" xmlns:xlink="http://www.w3.org/1999/xlink" x="0px" y="0px"
	 viewBox="0 0 15 15" style="enable-background:new 0 0 15 15;" xml:space="preserve">
<style type="text/css">
	.st0{fill:#FFCC99;}
</style>
<path class="st0" d="M1.9,4.7h11.3c0.5,0,0.9-0.4,0.9-0.9s-0.4-0.9-0.9-0.9H1.9c-0.5,0-0.9,0.4-0.9,0.9S1.4,4.7,1.9,4.7z M13.1,6.6
	H1.9C1.4,6.6,0.9,7,0.9,7.5s0.4,0.9,0.9,0.9h11.3c0.5,0,0.9-0.4,0.9-0.9S13.6,6.6,13.1,6.6z M13.1,10.3H1.9c-0.5,0-0.9,0.4-0.9,0.9
	s0.4,0.9,0.9,0.9h11.3c0.5,0,0.9-0.4,0.9-0.9S13.6,10.3,13.1,10.3z"/>
</svg>
